<svg xmlns="http://www.w3.org/2000/svg" xmlns:xlink="http://www.w3.org/1999/xlink" width="40" zoomAndPan="magnify" viewBox="0 0 30 30.000001" height="40" preserveAspectRatio="xMidYMid meet" version="1.0"><defs><clipPath id="25da375f15"><path d="M 1.902344 0.523438 L 28.015625 0.523438 L 28.015625 28.714844 L 1.902344 28.714844 Z M 1.902344 0.523438 " clip-rule="nonzero"/></clipPath><clipPath id="a095bc6f0c"><path d="M 2 0.410156 L 28 0.410156 L 28 28.714844 L 2 28.714844 Z M 2 0.410156 " clip-rule="nonzero"/></clipPath><clipPath id="ea749cf650"><path d="M 1.902344 0.410156 L 28.015625 0.410156 L 28.015625 22.660156 L 1.902344 22.660156 Z M 1.902344 0.410156 " clip-rule="nonzero"/></clipPath></defs><g clip-path="url(#25da375f15)"><path fill="#000000" d="M 28.015625 22.652344 L 28.015625 23.324219 L 25.890625 23.324219 L 25.890625 23.886719 L 23.214844 23.886719 L 23.214844 24 L 23.328125 24 L 23.328125 24.671875 L 22.65625 24.671875 L 22.65625 25.347656 L 20.648438 25.347656 L 20.648438 26.695312 L 17.972656 26.695312 L 17.972656 28.042969 L 16.632812 28.042969 L 16.632812 27.929688 L 16.519531 27.929688 L 16.519531 28.042969 L 16.632812 28.042969 L 16.632812 28.714844 L 13.285156 28.714844 L 13.285156 28.042969 L 13.398438 28.042969 L 13.398438 27.929688 L 13.285156 27.929688 L 13.285156 28.042969 L 11.945312 28.042969 L 11.945312 26.695312 L 9.269531 26.695312 L 9.269531 25.347656 L 7.257812 25.347656 L 7.257812 24.671875 L 6.589844 24.671875 L 6.589844 24 L 6.703125 24 L 6.703125 23.886719 L 4.023438 23.886719 L 4.023438 23.324219 L 1.902344 23.324219 L 1.902344 22.652344 L 2.015625 22.652344 L 2.015625 22.089844 L 2.683594 22.089844 L 2.683594 21.976562 L 2.574219 21.976562 L 2.574219 21.304688 L 3.242188 21.304688 L 3.242188 21.417969 L 3.355469 21.417969 L 3.355469 20.742188 L 8.710938 20.742188 L 8.710938 20.628906 L 8.597656 20.628906 L 8.597656 19.28125 L 7.929688 19.28125 L 7.929688 18.605469 L 6.589844 18.605469 L 6.589844 10.519531 L 6.703125 10.519531 L 6.703125 9.285156 L 7.371094 9.285156 L 7.371094 8.609375 L 8.042969 8.609375 L 8.042969 2.320312 L 7.371094 2.320312 L 7.371094 1.644531 L 6.703125 1.644531 L 6.703125 0.96875 L 6.03125 0.96875 L 6.03125 0.523438 L 7.816406 0.523438 L 7.816406 1.195312 L 8.484375 1.195312 L 8.484375 1.871094 L 9.15625 1.871094 L 9.15625 2.546875 L 9.824219 2.546875 L 9.824219 3.894531 L 10.492188 3.894531 L 10.492188 5.914062 L 12.058594 5.914062 L 12.058594 5.242188 L 14.066406 5.242188 L 14.066406 3.21875 L 15.851562 3.21875 L 15.851562 5.242188 L 17.859375 5.242188 L 17.859375 5.914062 L 19.421875 5.914062 L 19.421875 3.894531 L 20.09375 3.894531 L 20.09375 1.871094 L 21.429688 1.871094 L 21.429688 0.523438 L 23.882812 0.523438 L 23.882812 0.96875 L 23.214844 0.96875 L 23.214844 1.644531 L 22.546875 1.644531 L 22.546875 2.992188 L 21.875 2.992188 L 21.875 8.609375 L 22.546875 8.609375 L 22.546875 9.285156 L 23.214844 9.285156 L 23.214844 10.519531 L 23.328125 10.519531 L 23.328125 18.605469 L 21.320312 18.605469 L 21.320312 20.628906 L 21.207031 20.628906 L 21.207031 20.742188 L 26.5625 20.742188 L 26.5625 21.417969 L 26.675781 21.417969 L 26.675781 21.304688 L 27.34375 21.304688 L 27.34375 21.976562 L 27.230469 21.976562 L 27.230469 22.089844 L 27.902344 22.089844 L 27.902344 22.652344 L 28.015625 22.652344 " fill-opacity="1" fill-rule="nonzero"/></g><g clip-path="url(#a095bc6f0c)"><path fill="#ff1616" d="M 27.902344 22.089844 L 27.902344 22.539062 L 20.761719 22.539062 L 20.761719 20.742188 L 26.5625 20.742188 L 26.5625 22.089844 Z M 9.15625 22.539062 L 2.015625 22.539062 L 2.015625 22.089844 L 3.355469 22.089844 L 3.355469 20.742188 L 9.15625 20.742188 Z M 11.390625 24.558594 L 11.390625 25.460938 L 10.492188 25.460938 L 10.492188 24.558594 Z M 11.164062 24 L 11.277344 24 L 11.277344 23.324219 L 9.9375 23.324219 L 9.9375 22.652344 L 9.269531 22.652344 L 9.269531 23.324219 L 3.910156 23.324219 L 3.910156 24 L 10.050781 24 L 10.050781 25.90625 L 11.832031 25.90625 L 11.832031 24.113281 L 11.164062 24.113281 Z M 16.074219 19.394531 L 15.179688 19.394531 L 15.179688 18.492188 L 16.074219 18.492188 Z M 16.074219 20.742188 L 15.179688 20.742188 L 15.179688 19.839844 L 16.074219 19.839844 Z M 16.074219 22.089844 L 15.179688 22.089844 L 15.179688 21.191406 L 16.074219 21.191406 Z M 14.511719 17.371094 L 14.511719 16.699219 L 14.066406 16.699219 L 14.066406 17.371094 L 13.398438 17.371094 L 13.398438 18.046875 L 11.832031 18.046875 L 11.832031 17.371094 L 11.164062 17.371094 L 11.164062 16.472656 L 11.277344 16.472656 L 11.277344 16.585938 L 12.058594 16.585938 L 12.058594 17.144531 L 13.171875 17.144531 L 13.171875 16.585938 L 13.953125 16.585938 L 13.953125 15.910156 L 13.839844 15.910156 L 13.839844 15.125 L 16.074219 15.125 L 16.074219 15.910156 L 15.964844 15.910156 L 15.964844 16.585938 L 16.746094 16.585938 L 16.746094 17.144531 L 17.859375 17.144531 L 17.859375 16.585938 L 18.640625 16.585938 L 18.640625 16.472656 L 18.753906 16.472656 L 18.753906 17.371094 L 18.082031 17.371094 L 18.082031 18.046875 L 16.519531 18.046875 L 16.519531 17.371094 L 15.851562 17.371094 L 15.851562 16.699219 L 15.40625 16.699219 L 15.40625 17.371094 Z M 14.734375 19.394531 L 13.839844 19.394531 L 13.839844 18.492188 L 14.734375 18.492188 Z M 14.734375 20.742188 L 13.839844 20.742188 L 13.839844 19.839844 L 14.734375 19.839844 Z M 14.734375 22.089844 L 13.839844 22.089844 L 13.839844 21.191406 L 14.734375 21.191406 Z M 12.503906 15.238281 L 12.617188 15.238281 L 12.617188 12.542969 L 12.503906 12.542969 L 12.503906 12.429688 L 13.398438 12.429688 L 13.398438 15.351562 L 12.503906 15.351562 Z M 10.492188 7.035156 L 11.164062 7.035156 L 11.164062 6.363281 L 12.503906 6.363281 L 12.503906 5.6875 L 13.398438 5.6875 L 13.398438 6.589844 L 12.726562 6.589844 L 12.726562 7.261719 L 11.390625 7.261719 L 11.390625 7.9375 L 10.71875 7.9375 L 10.71875 8.609375 L 10.050781 8.609375 L 10.050781 9.84375 L 9.269531 9.84375 L 9.269531 11.867188 L 9.378906 11.867188 L 9.378906 13.328125 L 9.269531 13.328125 L 9.269531 13.214844 L 8.597656 13.214844 L 8.597656 8.496094 L 9.269531 8.496094 L 9.269531 8.382812 L 9.824219 8.382812 L 9.824219 7.824219 L 9.9375 7.824219 L 9.9375 7.710938 L 10.492188 7.710938 Z M 14.511719 12.429688 L 14.625 12.429688 L 14.625 12.542969 L 15.292969 12.542969 L 15.292969 12.429688 L 15.40625 12.429688 L 15.40625 13.328125 L 15.292969 13.328125 L 15.292969 13.214844 L 14.625 13.214844 L 14.625 13.328125 L 14.511719 13.328125 Z M 16.519531 12.429688 L 17.414062 12.429688 L 17.414062 12.542969 L 17.300781 12.542969 L 17.300781 15.238281 L 17.414062 15.238281 L 17.414062 15.351562 L 16.519531 15.351562 Z M 16.519531 5.6875 L 17.414062 5.6875 L 17.414062 6.363281 L 18.753906 6.363281 L 18.753906 7.035156 L 19.421875 7.035156 L 19.421875 7.710938 L 19.980469 7.710938 L 19.980469 7.824219 L 20.09375 7.824219 L 20.09375 8.382812 L 20.648438 8.382812 L 20.648438 8.496094 L 21.320312 8.496094 L 21.320312 13.214844 L 20.648438 13.214844 L 20.648438 13.328125 L 20.535156 13.328125 L 20.535156 11.867188 L 20.648438 11.867188 L 20.648438 9.84375 L 19.867188 9.84375 L 19.867188 8.609375 L 19.199219 8.609375 L 19.199219 7.9375 L 18.527344 7.9375 L 18.527344 7.261719 L 17.1875 7.261719 L 17.1875 6.589844 L 16.519531 6.589844 Z M 16.519531 22.539062 L 17.1875 22.539062 L 17.1875 21.191406 L 18.082031 21.191406 L 18.082031 22.539062 L 19.199219 22.539062 L 19.199219 21.863281 L 19.867188 21.863281 L 19.867188 19.839844 L 20.535156 19.839844 L 20.535156 15.238281 L 20.648438 15.238281 L 20.648438 14.5625 L 21.320312 14.5625 L 21.320312 13.890625 L 21.988281 13.890625 L 21.988281 13.777344 L 22.101562 13.777344 L 22.101562 14.449219 L 22.546875 14.449219 L 22.546875 13.214844 L 22.65625 13.214844 L 22.65625 10.40625 L 23.214844 10.40625 L 23.214844 9.84375 L 23.328125 9.84375 L 23.328125 9.171875 L 22.65625 9.171875 L 22.65625 8.496094 L 21.988281 8.496094 L 21.988281 7.824219 L 21.875 7.824219 L 21.875 4.453125 L 21.988281 4.453125 L 21.988281 3.105469 L 22.65625 3.105469 L 22.65625 1.757812 L 23.328125 1.757812 L 23.328125 1.082031 L 23.214844 1.082031 L 23.214844 0.96875 L 23.882812 0.96875 L 23.882812 0.523438 L 21.429688 0.523438 L 21.429688 1.757812 L 21.320312 1.757812 L 21.320312 1.871094 L 20.09375 1.871094 L 20.09375 3.894531 L 19.421875 3.894531 L 19.421875 5.914062 L 17.859375 5.914062 L 17.859375 5.242188 L 15.851562 5.242188 L 15.851562 3.21875 L 14.066406 3.21875 L 14.066406 5.242188 L 12.058594 5.242188 L 12.058594 5.914062 L 10.492188 5.914062 L 10.492188 3.894531 L 9.824219 3.894531 L 9.824219 2.546875 L 9.269531 2.546875 L 9.269531 2.433594 L 9.15625 2.433594 L 9.15625 1.871094 L 8.597656 1.871094 L 8.597656 1.757812 L 8.484375 1.757812 L 8.484375 1.195312 L 7.929688 1.195312 L 7.929688 1.082031 L 7.816406 1.082031 L 7.816406 0.523438 L 6.03125 0.523438 L 6.03125 0.96875 L 6.703125 0.96875 L 6.703125 1.082031 L 6.589844 1.082031 L 6.589844 1.757812 L 7.257812 1.757812 L 7.257812 2.433594 L 7.929688 2.433594 L 7.929688 4.453125 L 8.042969 4.453125 L 8.042969 7.148438 L 7.929688 7.148438 L 7.929688 8.496094 L 7.257812 8.496094 L 7.257812 9.171875 L 6.589844 9.171875 L 6.589844 9.84375 L 6.703125 9.84375 L 6.703125 10.40625 L 7.257812 10.40625 L 7.257812 13.890625 L 7.371094 13.890625 L 7.371094 14.449219 L 8.042969 14.449219 L 8.042969 15.351562 L 7.371094 15.351562 L 7.371094 15.796875 L 8.042969 15.796875 L 8.042969 16.699219 L 7.371094 16.699219 L 7.371094 17.144531 L 8.042969 17.144531 L 8.042969 17.820312 L 8.710938 17.820312 L 8.710938 18.492188 L 9.378906 18.492188 L 9.378906 19.839844 L 10.050781 19.839844 L 10.050781 21.863281 L 10.71875 21.863281 L 10.71875 22.539062 L 11.832031 22.539062 L 11.832031 21.191406 L 12.726562 21.191406 L 12.726562 22.539062 L 13.398438 22.539062 L 13.398438 23.210938 L 14.734375 23.210938 L 14.734375 23.886719 L 15.179688 23.886719 L 15.179688 23.210938 L 16.519531 23.210938 Z M 21.875 15.796875 L 21.875 16.699219 L 22.546875 16.699219 L 22.546875 17.144531 L 21.875 17.144531 L 21.875 17.820312 L 21.429688 17.820312 L 21.429688 14.675781 L 21.875 14.675781 L 21.875 15.351562 L 22.546875 15.351562 L 22.546875 15.796875 Z M 16.632812 24.671875 L 17.300781 24.671875 L 17.300781 27.367188 L 16.632812 27.367188 L 16.632812 28.042969 L 15.292969 28.042969 L 15.292969 24.671875 L 15.964844 24.671875 L 15.964844 26.695312 L 16.632812 26.695312 Z M 13.953125 24.671875 L 14.625 24.671875 L 14.625 28.042969 L 13.285156 28.042969 L 13.285156 27.367188 L 12.617188 27.367188 L 12.617188 24.671875 L 13.285156 24.671875 L 13.285156 26.695312 L 13.953125 26.695312 Z M 19.421875 25.460938 L 18.527344 25.460938 L 18.527344 24.558594 L 19.421875 24.558594 Z M 24.667969 23.324219 L 19.980469 23.324219 L 19.980469 22.652344 L 19.308594 22.652344 L 19.308594 23.324219 L 18.640625 23.324219 L 18.640625 24 L 18.753906 24 L 18.753906 24.113281 L 18.082031 24.113281 L 18.082031 25.90625 L 19.867188 25.90625 L 19.867188 24 L 26.003906 24 L 26.003906 23.324219 L 24.667969 23.324219 " fill-opacity="1" fill-rule="nonzero"/></g><path fill="#ffffff" d="M 7.257812 13.890625 L 7.257812 14.5625 L 7.929688 14.5625 L 7.929688 13.890625 Z M 7.929688 15.238281 L 7.257812 15.238281 L 7.257812 15.910156 L 7.929688 15.910156 L 7.929688 16.585938 L 7.257812 16.585938 L 7.257812 17.257812 L 7.929688 17.257812 L 7.929688 17.933594 L 8.597656 17.933594 L 8.597656 14.5625 L 7.929688 14.5625 Z M 9.9375 14.5625 L 10.605469 14.5625 L 10.605469 13.214844 L 9.9375 13.214844 L 9.9375 11.867188 L 9.269531 11.867188 L 9.269531 13.890625 L 9.9375 13.890625 Z M 10.605469 18.605469 L 9.9375 18.605469 L 9.9375 19.28125 L 10.605469 19.28125 Z M 10.605469 17.933594 L 11.277344 17.933594 L 11.277344 22.652344 L 10.605469 22.652344 L 10.605469 21.976562 L 9.9375 21.976562 L 9.9375 20.628906 L 10.605469 20.628906 L 10.605469 19.953125 L 9.269531 19.953125 L 9.269531 15.238281 L 9.9375 15.238281 L 9.9375 16.585938 L 10.605469 16.585938 Z M 11.945312 12.542969 L 12.617188 12.542969 L 12.617188 11.867188 L 13.285156 11.867188 L 13.285156 6.476562 L 12.617188 6.476562 L 12.617188 7.148438 L 11.277344 7.148438 L 11.277344 7.824219 L 10.605469 7.824219 L 10.605469 8.496094 L 9.9375 8.496094 L 9.9375 9.84375 L 10.605469 9.84375 L 10.605469 11.867188 L 11.277344 11.867188 L 11.277344 12.542969 Z M 11.945312 16.585938 L 11.945312 17.257812 L 13.285156 17.257812 L 13.285156 16.585938 Z M 13.285156 13.214844 L 13.285156 15.238281 L 16.632812 15.238281 L 16.632812 12.542969 L 15.964844 12.542969 L 15.964844 11.867188 L 15.292969 11.867188 L 15.292969 13.890625 L 14.625 13.890625 L 14.625 11.867188 L 13.953125 11.867188 L 13.953125 12.542969 L 13.285156 12.542969 Z M 13.285156 21.304688 L 13.285156 21.976562 L 13.953125 21.976562 L 13.953125 21.304688 Z M 15.292969 6.476562 L 15.964844 6.476562 L 15.964844 3.105469 L 13.953125 3.105469 L 13.953125 6.476562 Z M 16.632812 21.976562 L 16.632812 21.304688 L 15.964844 21.304688 L 15.964844 21.976562 Z M 16.632812 16.585938 L 16.632812 17.257812 L 17.972656 17.257812 L 17.972656 16.585938 Z M 15.964844 19.28125 L 15.964844 18.605469 L 15.292969 18.605469 L 15.292969 19.28125 Z M 14.625 19.28125 L 14.625 18.605469 L 13.953125 18.605469 L 13.953125 19.28125 Z M 17.300781 17.933594 L 17.972656 17.933594 L 17.972656 19.28125 L 17.300781 19.28125 L 17.300781 19.953125 L 16.632812 19.953125 L 16.632812 20.628906 L 15.964844 20.628906 L 15.964844 19.953125 L 15.292969 19.953125 L 15.292969 20.628906 L 15.964844 20.628906 L 15.964844 21.304688 L 15.292969 21.304688 L 15.292969 21.976562 L 15.964844 21.976562 L 15.964844 22.652344 L 15.292969 22.652344 L 15.292969 24 L 14.625 24 L 14.625 22.652344 L 13.953125 22.652344 L 13.953125 21.976562 L 14.625 21.976562 L 14.625 21.304688 L 13.953125 21.304688 L 13.953125 20.628906 L 14.625 20.628906 L 14.625 19.953125 L 13.953125 19.953125 L 13.953125 20.628906 L 13.285156 20.628906 L 13.285156 19.953125 L 12.617188 19.953125 L 12.617188 19.28125 L 11.945312 19.28125 L 11.945312 17.933594 L 12.617188 17.933594 L 12.617188 18.605469 L 13.285156 18.605469 L 13.285156 17.933594 L 16.632812 17.933594 L 16.632812 18.605469 L 17.300781 18.605469 Z M 18.640625 11.867188 L 19.308594 11.867188 L 19.308594 9.84375 L 19.980469 9.84375 L 19.980469 8.496094 L 19.308594 8.496094 L 19.308594 7.824219 L 18.640625 7.824219 L 18.640625 7.148438 L 17.300781 7.148438 L 17.300781 6.476562 L 16.632812 6.476562 L 16.632812 11.867188 L 17.300781 11.867188 L 17.300781 12.542969 L 18.640625 12.542969 Z M 19.980469 12.542969 L 19.980469 13.214844 L 19.308594 13.214844 L 19.308594 14.5625 L 19.980469 14.5625 L 19.980469 13.890625 L 20.648438 13.890625 L 20.648438 11.867188 L 19.980469 11.867188 Z M 19.980469 18.605469 L 19.308594 18.605469 L 19.308594 19.28125 L 19.980469 19.28125 Z M 19.980469 15.238281 L 20.648438 15.238281 L 20.648438 19.953125 L 19.308594 19.953125 L 19.308594 20.628906 L 19.980469 20.628906 L 19.980469 21.976562 L 19.308594 21.976562 L 19.308594 22.652344 L 18.640625 22.652344 L 18.640625 17.257812 L 19.308594 17.257812 L 19.308594 16.585938 L 19.980469 16.585938 Z M 21.320312 15.238281 L 21.320312 17.933594 L 21.988281 17.933594 L 21.988281 17.257812 L 22.65625 17.257812 L 22.65625 16.585938 L 21.988281 16.585938 L 21.988281 15.910156 L 22.65625 15.910156 L 22.65625 15.238281 L 21.988281 15.238281 L 21.988281 14.5625 L 21.320312 14.5625 Z M 22.65625 13.214844 L 22.65625 14.5625 L 21.988281 14.5625 L 21.988281 13.214844 L 22.65625 13.214844 " fill-opacity="1" fill-rule="nonzero"/><path fill="#513784" d="M 4.582031 21.976562 L 5.25 21.976562 L 5.25 21.304688 L 4.582031 21.304688 Z M 5.921875 21.976562 L 6.589844 21.976562 L 6.589844 21.304688 L 5.921875 21.304688 Z M 7.257812 9.84375 L 6.589844 9.84375 L 6.589844 10.519531 L 7.257812 10.519531 Z M 7.257812 21.976562 L 7.929688 21.976562 L 7.929688 21.304688 L 7.257812 21.304688 Z M 8.597656 6.476562 L 8.597656 4.453125 L 7.929688 4.453125 L 7.929688 7.148438 L 8.597656 7.148438 Z M 7.929688 13.890625 L 7.929688 14.5625 L 8.597656 14.5625 L 8.597656 13.890625 Z M 8.597656 15.238281 L 8.597656 18.605469 L 9.269531 18.605469 L 9.269531 14.5625 L 8.597656 14.5625 Z M 14.625 7.148438 L 14.625 7.824219 L 13.953125 7.824219 L 13.953125 11.191406 L 15.964844 11.191406 L 15.964844 7.824219 L 15.292969 7.824219 L 15.292969 7.148438 Z M 11.277344 7.148438 L 10.605469 7.148438 L 10.605469 5.800781 L 11.945312 5.800781 L 11.945312 5.128906 L 13.953125 5.128906 L 13.953125 6.476562 L 15.964844 6.476562 L 15.964844 5.128906 L 17.972656 5.128906 L 17.972656 5.800781 L 19.308594 5.800781 L 19.308594 7.148438 L 18.640625 7.148438 L 18.640625 6.476562 L 17.300781 6.476562 L 17.300781 5.800781 L 16.632812 5.800781 L 16.632812 11.867188 L 17.300781 11.867188 L 17.300781 12.542969 L 15.964844 12.542969 L 15.964844 11.867188 L 13.953125 11.867188 L 13.953125 12.542969 L 12.617188 12.542969 L 12.617188 11.867188 L 13.285156 11.867188 L 13.285156 5.800781 L 12.617188 5.800781 L 12.617188 6.476562 L 11.277344 6.476562 Z M 11.277344 24.671875 L 10.605469 24.671875 L 10.605469 25.347656 L 11.277344 25.347656 Z M 11.277344 24 L 11.945312 24 L 11.945312 26.019531 L 9.9375 26.019531 L 9.9375 24 Z M 11.945312 17.933594 L 11.945312 17.257812 L 11.277344 17.257812 L 11.277344 15.910156 L 13.953125 15.910156 L 13.953125 15.238281 L 11.277344 15.238281 L 11.277344 13.890625 L 10.605469 13.890625 L 10.605469 15.238281 L 9.9375 15.238281 L 9.9375 16.585938 L 10.605469 16.585938 L 10.605469 17.933594 L 11.277344 17.933594 L 11.277344 19.28125 L 11.945312 19.28125 Z M 12.617188 18.605469 L 13.285156 18.605469 L 13.285156 17.933594 L 12.617188 17.933594 Z M 13.953125 21.976562 L 13.285156 21.976562 L 13.285156 21.304688 L 13.953125 21.304688 L 13.953125 20.628906 L 13.285156 20.628906 L 13.285156 19.953125 L 12.617188 19.953125 L 12.617188 19.28125 L 11.945312 19.28125 L 11.945312 21.304688 L 12.617188 21.304688 L 12.617188 22.652344 L 13.285156 22.652344 L 13.285156 23.324219 L 14.625 23.324219 L 14.625 22.652344 L 13.953125 22.652344 Z M 15.964844 17.933594 L 16.632812 17.933594 L 16.632812 17.257812 L 15.964844 17.257812 L 15.964844 16.585938 L 15.292969 16.585938 L 15.292969 17.257812 L 14.625 17.257812 L 14.625 16.585938 L 13.953125 16.585938 L 13.953125 17.257812 L 13.285156 17.257812 L 13.285156 17.933594 Z M 17.300781 18.605469 L 17.300781 17.933594 L 16.632812 17.933594 L 16.632812 18.605469 Z M 17.300781 19.953125 L 16.632812 19.953125 L 16.632812 20.628906 L 15.964844 20.628906 L 15.964844 21.304688 L 16.632812 21.304688 L 16.632812 21.976562 L 15.964844 21.976562 L 15.964844 22.652344 L 15.292969 22.652344 L 15.292969 23.324219 L 16.632812 23.324219 L 16.632812 22.652344 L 17.300781 22.652344 L 17.300781 21.304688 L 17.972656 21.304688 L 17.972656 19.28125 L 17.300781 19.28125 Z M 17.972656 17.933594 L 17.972656 19.28125 L 18.640625 19.28125 L 18.640625 17.257812 L 17.972656 17.257812 Z M 19.308594 14.5625 L 19.308594 13.890625 L 18.640625 13.890625 L 18.640625 15.238281 L 15.964844 15.238281 L 15.964844 15.910156 L 18.640625 15.910156 L 18.640625 17.257812 L 19.308594 17.257812 L 19.308594 16.585938 L 19.980469 16.585938 L 19.980469 15.238281 L 19.308594 15.238281 Z M 19.308594 24.671875 L 18.640625 24.671875 L 18.640625 25.347656 L 19.308594 25.347656 Z M 19.308594 24 L 19.980469 24 L 19.980469 26.019531 L 17.972656 26.019531 L 17.972656 24 Z M 21.988281 7.148438 L 21.988281 4.453125 L 21.320312 4.453125 L 21.320312 7.824219 L 21.988281 7.824219 Z M 21.988281 21.976562 L 22.65625 21.976562 L 22.65625 21.304688 L 21.988281 21.304688 Z M 23.328125 9.84375 L 22.65625 9.84375 L 22.65625 10.519531 L 23.328125 10.519531 Z M 23.328125 21.976562 L 23.996094 21.976562 L 23.996094 21.304688 L 23.328125 21.304688 Z M 25.335938 21.304688 L 25.335938 21.976562 L 24.667969 21.976562 L 24.667969 21.304688 L 25.335938 21.304688 " fill-opacity="1" fill-rule="nonzero"/><g clip-path="url(#ea749cf650)"><path fill="#004aad" d="M 7.929688 0.410156 L 7.929688 1.082031 L 5.921875 1.082031 L 5.921875 0.410156 Z M 8.597656 1.082031 L 8.597656 1.757812 L 7.929688 1.757812 L 7.929688 1.082031 Z M 7.257812 21.976562 L 7.257812 21.304688 L 7.929688 21.304688 L 7.929688 21.976562 Z M 5.921875 21.976562 L 5.921875 21.304688 L 6.589844 21.304688 L 6.589844 21.976562 Z M 4.582031 21.976562 L 4.582031 21.304688 L 5.25 21.304688 L 5.25 21.976562 Z M 7.929688 20.628906 L 3.242188 20.628906 L 3.242188 21.976562 L 1.902344 21.976562 L 1.902344 22.652344 L 9.269531 22.652344 L 9.269531 20.628906 Z M 9.269531 1.757812 L 9.269531 2.433594 L 8.597656 2.433594 L 8.597656 1.757812 Z M 9.9375 3.78125 L 10.605469 3.78125 L 10.605469 7.824219 L 9.9375 7.824219 L 9.9375 4.453125 L 9.269531 4.453125 L 9.269531 2.433594 L 9.9375 2.433594 Z M 9.269531 7.824219 L 9.9375 7.824219 L 9.9375 8.496094 L 9.269531 8.496094 Z M 9.9375 18.605469 L 10.605469 18.605469 L 10.605469 19.28125 L 9.9375 19.28125 Z M 9.9375 19.953125 L 10.605469 19.953125 L 10.605469 20.628906 L 9.9375 20.628906 Z M 11.277344 19.28125 L 11.945312 19.28125 L 11.945312 22.652344 L 11.277344 22.652344 Z M 15.292969 7.824219 L 14.625 7.824219 L 14.625 7.148438 L 15.292969 7.148438 Z M 15.292969 7.824219 L 15.964844 7.824219 L 15.964844 11.191406 L 13.953125 11.191406 L 13.953125 7.824219 L 14.625 7.824219 L 14.625 9.171875 L 15.292969 9.171875 Z M 17.972656 19.28125 L 18.640625 19.28125 L 18.640625 22.652344 L 17.972656 22.652344 Z M 19.980469 7.148438 L 19.980469 7.824219 L 19.308594 7.824219 L 19.308594 3.78125 L 19.980469 3.78125 L 19.980469 1.757812 L 21.320312 1.757812 L 21.320312 2.433594 L 20.648438 2.433594 L 20.648438 4.453125 L 19.980469 4.453125 Z M 19.308594 18.605469 L 19.980469 18.605469 L 19.980469 19.28125 L 19.308594 19.28125 Z M 19.308594 19.953125 L 19.980469 19.953125 L 19.980469 20.628906 L 19.308594 20.628906 Z M 19.980469 8.496094 L 19.980469 7.824219 L 20.648438 7.824219 L 20.648438 8.496094 Z M 21.988281 1.757812 L 21.320312 1.757812 L 21.320312 0.410156 L 23.996094 0.410156 L 23.996094 1.082031 L 21.988281 1.082031 Z M 24.667969 21.976562 L 24.667969 21.304688 L 25.335938 21.304688 L 25.335938 21.976562 Z M 23.328125 21.976562 L 23.328125 21.304688 L 23.996094 21.304688 L 23.996094 21.976562 Z M 21.988281 21.976562 L 21.988281 21.304688 L 22.65625 21.304688 L 22.65625 21.976562 Z M 27.34375 21.976562 L 26.675781 21.976562 L 26.675781 20.628906 L 20.648438 20.628906 L 20.648438 22.652344 L 28.015625 22.652344 L 28.015625 21.976562 L 27.34375 21.976562 " fill-opacity="1" fill-rule="nonzero"/></g></svg>